<svg width="264" height="189" viewBox="0 0 264 189" fill="none" xmlns="http://www.w3.org/2000/svg">
<path d="M107.254 4.534L121.614 21.694C122.902 23.233 124.538 24.4436 126.386 25.226C128.234 26.0085 130.242 26.3402 132.244 26.194L196.034 21.504C200.793 21.1543 205.496 22.7085 209.109 25.825C212.723 28.9415 214.951 33.3653 215.304 38.124L223.974 155.954C224.315 160.708 222.757 165.403 219.642 169.01C216.526 172.617 212.107 174.841 207.354 175.194L30.4938 188.194C25.7333 188.544 21.0288 186.988 17.4151 183.869C13.8013 180.751 11.5743 176.324 11.2238 171.564L0.0338434 19.824C-0.211183 16.481 0.88167 13.1776 3.07204 10.6403C5.2624 8.10299 8.3709 6.53962 11.7138 6.29401L96.6338 0.0340017C98.6342 -0.113069 100.641 0.218375 102.488 1.00091C104.334 1.78344 105.968 2.99455 107.254 4.534V4.534Z" fill="#545BFF"/>
<g opacity="0.3">
<path opacity="0.3" d="M107.254 4.534L121.614 21.694C122.902 23.233 124.538 24.4436 126.386 25.226C128.234 26.0085 130.242 26.3402 132.244 26.194L196.034 21.504C200.793 21.1543 205.496 22.7085 209.109 25.825C212.723 28.9415 214.951 33.3653 215.304 38.124L223.974 155.954C224.315 160.708 222.757 165.403 219.642 169.01C216.526 172.617 212.107 174.841 207.354 175.194L30.4938 188.194C25.7333 188.544 21.0288 186.988 17.4151 183.869C13.8013 180.751 11.5743 176.324 11.2238 171.564L0.0338434 19.824C-0.211183 16.481 0.88167 13.1776 3.07204 10.6403C5.2624 8.10299 8.3709 6.53962 11.7138 6.29401L96.6338 0.0340017C98.6342 -0.113069 100.641 0.218375 102.488 1.00091C104.334 1.78344 105.968 2.99455 107.254 4.534V4.534Z" fill="black"/>
</g>
<path d="M75.196 10.3059L14.6498 14.7628C13.2783 14.8637 12.2483 16.0574 12.3493 17.4288L12.3537 17.4887C12.4547 18.8602 13.6483 19.8901 15.0198 19.7892L75.566 15.3323C76.9375 15.2313 77.9674 14.0377 77.8665 12.6662L77.8621 12.6064C77.7611 11.2349 76.5675 10.2049 75.196 10.3059Z" fill="white"/>
<path d="M66.4957 22.132L14.9057 25.7433C13.5305 25.8396 12.4937 27.0324 12.5899 28.4076L12.5941 28.4676C12.6904 29.8428 13.8833 30.8796 15.2585 30.7833L66.8485 27.172C68.2236 27.0757 69.2604 25.8829 69.1641 24.5077L69.1599 24.4477C69.0637 23.0725 67.8708 22.0357 66.4957 22.132Z" fill="white"/>
<path d="M213.164 168.504L27.3539 182.194C25.1102 182.354 22.8944 181.619 21.1911 180.15C19.4877 178.681 18.4353 176.597 18.2639 174.354L9.83387 59.784C9.67133 57.5397 10.4054 55.3225 11.875 53.6185C13.3447 51.9146 15.43 50.8629 17.6739 50.694L203.494 37.014C205.738 36.8515 207.955 37.5855 209.659 39.0552C211.363 40.5248 212.415 42.6102 212.584 44.854L221.024 159.414C221.181 161.66 220.442 163.877 218.969 165.581C217.497 167.284 215.409 168.335 213.164 168.504Z" fill="#E0E0E0"/>
<path d="M203.476 37.0203L20.3218 50.5025C15.6456 50.8467 12.1338 54.9166 12.478 59.5928L20.9109 174.153C21.2551 178.829 25.325 182.341 30.0012 181.997L213.156 168.515C217.832 168.17 221.344 164.1 221 159.424L212.567 44.8641C212.222 40.1879 208.153 36.6761 203.476 37.0203Z" fill="white"/>
<path d="M36.0138 181.554L74.3538 178.724L39.6438 64.564L36.0138 181.554Z" fill="#F5F5F5"/>
<path d="M249.304 136.524L65.5839 167.454C63.3581 167.819 61.0786 167.287 59.2439 165.975C57.4092 164.663 56.1688 162.678 55.7939 160.454L36.7239 47.194C36.3595 44.9694 36.8916 42.6911 38.2036 40.8581C39.5156 39.025 41.5006 37.7866 43.7239 37.414L227.444 6.48403C229.67 6.11677 231.951 6.6475 233.786 7.95978C235.622 9.27207 236.861 11.2588 237.234 13.484L256.304 126.754C256.663 128.977 256.128 131.251 254.817 133.081C253.506 134.911 251.524 136.149 249.304 136.524V136.524Z" fill="white"/>
<path opacity="0.3" d="M227.437 6.4863L46.3374 36.987C41.7136 37.7657 38.5966 42.1453 39.3754 46.7691L58.453 160.044C59.2317 164.668 63.6113 167.785 68.2351 167.006L249.335 136.505C253.958 135.726 257.075 131.347 256.297 126.723L237.219 13.4484C236.44 8.82459 232.061 5.70756 227.437 6.4863Z" fill="#545BFF"/>
<path opacity="0.2" d="M225.114 30.884L56.4939 59.264C55.5143 59.4264 54.5104 59.1947 53.701 58.6195C52.8917 58.0444 52.3427 57.1724 52.1739 56.194L51.2339 50.564C51.1522 50.0794 51.1669 49.5835 51.277 49.1045C51.3871 48.6256 51.5905 48.173 51.8757 47.7728C52.1608 47.3725 52.522 47.0324 52.9386 46.7718C53.3553 46.5112 53.8192 46.3352 54.3039 46.254L222.924 17.864C223.904 17.6989 224.909 17.9295 225.719 18.5052C226.529 19.0808 227.077 19.9544 227.244 20.934L228.194 26.564C228.353 27.5446 228.119 28.5486 227.542 29.3575C226.966 30.1665 226.093 30.7151 225.114 30.884V30.884Z" fill="#545BFF"/>
<path opacity="0.2" d="M226.934 41.014L58.0738 69.444C57.6019 69.5204 57.1497 69.6894 56.7433 69.9411C56.3368 70.1928 55.9841 70.5223 55.7053 70.9107C55.4266 71.2991 55.2273 71.7387 55.1189 72.2043C55.0105 72.6699 54.9952 73.1524 55.0738 73.6239L55.9038 78.6239C55.9803 79.0959 56.1492 79.548 56.4009 79.9545C56.6526 80.3609 56.9821 80.7137 57.3705 80.9924C57.7589 81.2712 58.1985 81.4705 58.6641 81.5788C59.1298 81.6872 59.6122 81.7025 60.0838 81.6239L228.944 53.194C229.415 53.1174 229.866 52.9488 230.272 52.6978C230.677 52.4467 231.03 52.1182 231.308 51.7309C231.587 51.3436 231.786 50.9051 231.895 50.4407C232.005 49.9762 232.021 49.4948 231.944 49.024L231.104 44.024C230.949 43.0722 230.423 42.2208 229.641 41.6565C228.86 41.0922 227.886 40.8611 226.934 41.014Z" fill="#545BFF"/>
<path d="M249.564 174.704L249.204 173.764C251.516 172.887 253.65 171.6 255.504 169.964L256.164 170.714C254.223 172.431 251.987 173.783 249.564 174.704V174.704Z" fill="#545BFF"/>
<path d="M261.264 164.114L260.374 163.664C262.055 160.325 262.795 156.592 262.514 152.864L261.414 137.864L262.414 137.794L263.514 152.794C263.804 156.701 263.026 160.614 261.264 164.114V164.114Z" fill="#545BFF"/>
<path d="M243.184 172.564L48.6639 186.884L30.4939 188.194C35.3155 187.838 39.7983 185.582 42.9564 181.922C46.1145 178.261 47.6891 173.496 47.3339 168.674L41.4939 88.954C41.3726 87.3765 41.5645 85.7905 42.0585 84.2874C42.5526 82.7843 43.3389 81.3938 44.3724 80.1958C45.4059 78.9978 46.6662 78.016 48.0806 77.3069C49.495 76.5978 51.0356 76.1754 52.6139 76.064L241.254 62.194C242.832 62.0714 244.419 62.2622 245.923 62.7556C247.428 63.249 248.82 64.0352 250.019 65.0688C251.218 66.1024 252.2 67.3631 252.91 68.7782C253.62 70.1933 254.043 71.7348 254.154 73.314L260.024 153.084C260.371 157.9 258.792 162.656 255.635 166.308C252.477 169.961 247.999 172.211 243.184 172.564V172.564Z" fill="#545BFF"/>
</svg>
