<svg width="23" height="23" viewBox="0 0 23 23" fill="none" xmlns="http://www.w3.org/2000/svg">
<path d="M16.1466 14.2091H15.1262L14.7646 13.8604C16.3146 12.0521 17.1154 9.58497 16.6762 6.96289C16.0691 3.37206 13.0725 0.504558 9.45581 0.0653914C3.99206 -0.606275 -0.606275 3.99206 0.0653914 9.45581C0.504558 13.0725 3.37206 16.0691 6.96289 16.6762C9.58498 17.1154 12.0521 16.3146 13.8604 14.7646L14.2091 15.1262V16.1466L19.6987 21.6362C20.2283 22.1658 21.0937 22.1658 21.6233 21.6362C22.1529 21.1066 22.1529 20.2412 21.6233 19.7116L16.1466 14.2091ZM8.39664 14.2091C5.18039 14.2091 2.58414 11.6129 2.58414 8.39664C2.58414 5.18039 5.18039 2.58414 8.39664 2.58414C11.6129 2.58414 14.2091 5.18039 14.2091 8.39664C14.2091 11.6129 11.6129 14.2091 8.39664 14.2091Z" fill="white"/>
</svg>
