<svg width="18" height="22" viewBox="0 0 18 22" fill="none" xmlns="http://www.w3.org/2000/svg">
<path d="M16.951 5.951L11.638 0.638C11.231 0.231 10.67 0 10.087 0H2.2C0.99 0 0 0.99 0 2.2V19.8C0 21.01 0.99 22 2.2 22H15.4C16.61 22 17.6 21.01 17.6 19.8V7.513C17.6 6.93 17.369 6.369 16.951 5.951ZM12.914 18.414C12.485 18.843 11.792 18.843 11.363 18.414L10.065 17.116C8.602 17.897 6.754 17.699 5.522 16.467C3.85 14.795 4.037 11.979 6.072 10.56C7.348 9.669 9.13 9.669 10.417 10.56C12.122 11.748 12.507 13.904 11.616 15.565L12.914 16.863C13.343 17.292 13.343 17.985 12.914 18.414ZM11 7.7C10.395 7.7 9.9 7.205 9.9 6.6V1.65L15.95 7.7H11Z" fill="white"/>
<path d="M8.24998 15.4C9.16125 15.4 9.89998 14.6613 9.89998 13.75C9.89998 12.8387 9.16125 12.1 8.24998 12.1C7.33871 12.1 6.59998 12.8387 6.59998 13.75C6.59998 14.6613 7.33871 15.4 8.24998 15.4Z" fill="white"/>
</svg>
