<svg width="22" height="22" viewBox="0 0 22 22" fill="none" xmlns="http://www.w3.org/2000/svg">
<path d="M18.9456 11C18.9456 10.747 18.9346 10.505 18.9126 10.252L20.9586 8.701C21.3986 8.371 21.5196 7.755 21.2446 7.271L19.1876 3.718C18.9126 3.234 18.3186 3.036 17.8126 3.256L15.4476 4.257C15.0406 3.971 14.6116 3.718 14.1606 3.509L13.8416 0.968C13.7756 0.418 13.3026 0 12.7526 0H8.64963C8.08863 0 7.61563 0.418 7.54963 0.968L7.23063 3.509C6.77963 3.718 6.35063 3.971 5.94363 4.257L3.57863 3.256C3.07263 3.036 2.47863 3.234 2.20363 3.718L0.146628 7.282C-0.128372 7.766 -0.00737227 8.371 0.432628 8.712L2.47863 10.263C2.45663 10.505 2.44563 10.747 2.44563 11C2.44563 11.253 2.45663 11.495 2.47863 11.748L0.432628 13.299C-0.00737227 13.629 -0.128372 14.245 0.146628 14.729L2.20363 18.282C2.47863 18.766 3.07263 18.964 3.57863 18.744L5.94363 17.743C6.35063 18.029 6.77963 18.282 7.23063 18.491L7.54963 21.032C7.61563 21.582 8.08863 22 8.63863 22H12.7416C13.2916 22 13.7646 21.582 13.8306 21.032L14.1496 18.491C14.6006 18.282 15.0296 18.029 15.4366 17.743L17.8016 18.744C18.3076 18.964 18.9016 18.766 19.1766 18.282L21.2336 14.729C21.5086 14.245 21.3876 13.64 20.9476 13.299L18.9016 11.748C18.9346 11.495 18.9456 11.253 18.9456 11ZM10.7396 14.85C8.61663 14.85 6.88963 13.123 6.88963 11C6.88963 8.877 8.61663 7.15 10.7396 7.15C12.8626 7.15 14.5896 8.877 14.5896 11C14.5896 13.123 12.8626 14.85 10.7396 14.85Z" fill="white"/>
</svg>
